<?xml version="1.0" standalone="no"?>
<!DOCTYPE svg PUBLIC "-//W3C//DTD SVG 20010904//EN"
 "http://www.w3.org/TR/2001/REC-SVG-20010904/DTD/svg10.dtd">
<svg version="1.0" xmlns="http://www.w3.org/2000/svg"
 width="188.000000pt" height="268.000000pt" viewBox="0 0 188.000000 268.000000"
 preserveAspectRatio="xMidYMid meet">

<g transform="translate(0.000000,268.000000) scale(0.100000,-0.100000)"
fill="#000000" stroke="none">
<path d="M1170 2639 c0 -62 -29 -101 -108 -142 -37 -20 -60 -37 -52 -38 9 0 5
-5 -10 -12 -33 -16 -217 -140 -255 -172 l-30 -26 50 24 c60 30 147 56 189 58
28 2 27 3 -9 9 l-40 6 30 13 c16 7 41 11 55 9 14 -1 30 1 36 5 19 11 54 -25
63 -65 9 -37 -13 -107 -38 -122 -6 -4 -11 -12 -11 -18 0 -6 8 -4 18 5 26 24
33 21 26 -10 -8 -33 -23 -55 -34 -48 -4 3 -13 -2 -20 -10 -17 -21 -28 -19 -35
8 -4 12 -21 35 -38 50 -21 19 -26 27 -13 23 12 -4 5 9 -22 39 -23 24 -42 50
-42 56 0 7 -3 10 -6 6 -4 -3 3 -24 14 -46 26 -49 17 -59 -21 -24 l-30 28 18
-30 c11 -16 25 -37 33 -47 19 -22 5 -28 -48 -18 -25 5 -61 9 -80 8 -25 0 -28
-2 -10 -5 32 -5 100 -36 100 -45 0 -15 -115 -8 -139 8 l-22 16 23 25 c23 25
23 26 1 14 -26 -13 -34 -3 -52 67 -12 41 -24 52 -36 32 -3 -5 -15 -10 -27 -10
-15 0 -18 -4 -13 -17 14 -34 38 -123 34 -126 -2 -2 -38 -27 -79 -57 -41 -30
-94 -74 -118 -99 -42 -45 -48 -42 -27 14 5 13 0 9 -16 -10 -13 -16 -22 -30
-19 -30 9 0 -61 -94 -76 -103 -15 -8 -15 -10 0 -15 9 -4 15 -2 13 5 -2 13 40
38 66 38 10 0 15 -4 12 -10 -8 -13 -4 -13 39 5 53 22 44 9 -14 -20 -27 -14
-50 -27 -50 -28 0 -2 12 -2 27 0 16 3 44 -3 63 -11 l35 -15 -40 -2 c-22 -1
-53 -1 -70 0 l-30 2 29 -16 c15 -8 35 -15 42 -15 8 0 14 -4 14 -10 0 -5 -5
-10 -10 -10 -7 0 -7 -6 -1 -19 9 -15 6 -22 -14 -35 -14 -9 -25 -26 -25 -39 0
-12 -5 -29 -10 -37 -7 -12 -11 -10 -19 10 l-10 25 -1 -30 c-1 -17 -4 -23 -7
-15 -9 24 -43 53 -44 38 -1 -7 -4 -2 -8 12 -8 28 -33 29 -59 3 -14 -14 -16
-13 -23 5 -4 11 -13 23 -19 27 -8 5 -8 11 1 21 10 12 13 12 23 -2 10 -14 13
-12 26 10 7 14 20 26 28 26 9 0 12 6 8 16 -5 14 -4 15 8 5 8 -7 22 -11 30 -9
11 2 9 9 -10 31 -20 23 -28 27 -39 17 -7 -6 -11 -19 -8 -28 3 -10 1 -13 -4 -7
-15 18 -33 15 -33 -6 0 -11 5 -17 10 -14 6 3 10 2 10 -4 0 -21 -21 -21 -29 1
-6 13 -10 17 -10 9 -1 -8 -7 -11 -16 -7 -9 3 -18 0 -21 -8 -3 -7 -19 -13 -37
-14 -31 -1 -31 0 -12 14 47 35 65 55 65 74 0 12 16 38 36 58 l37 37 -17 -35
c-15 -32 -12 -30 39 23 43 45 57 55 61 42 4 -9 -2 -26 -12 -38 -11 -14 -8 -12
11 5 18 18 30 39 32 63 3 33 2 36 -17 30 -11 -4 -20 -2 -20 4 0 6 12 11 28 11
25 1 25 2 -13 20 -22 11 -33 20 -25 20 8 0 3 7 -12 16 -32 17 -36 31 -11 37
13 3 11 5 -6 6 -24 1 -24 1 -5 17 10 8 15 13 9 11 -13 -6 -47 7 -45 17 2 14
-79 46 -116 46 -32 0 -34 -2 -28 -27 4 -16 8 -30 10 -32 1 -2 -3 -9 -9 -16 -9
-10 -17 -9 -36 4 -21 14 -24 14 -19 1 3 -8 2 -24 -2 -35 -4 -10 -1 -30 6 -43
14 -27 8 -56 -9 -45 -5 3 -7 1 -4 -5 4 -5 17 -8 28 -5 18 5 20 3 14 -17 -5
-15 -4 -20 4 -16 6 4 11 2 11 -4 0 -7 -7 -10 -15 -6 -9 3 -19 -3 -26 -15 -9
-19 -8 -20 10 -14 12 3 21 2 21 -3 0 -11 -26 -80 -40 -105 -8 -13 -7 -19 5
-23 22 -9 19 -46 -10 -114 l-25 -59 0 -791 0 -790 560 0 c308 0 560 3 560 6 0
4 -8 13 -18 20 -16 12 -15 13 6 14 13 0 22 -6 22 -15 0 -8 7 -15 16 -15 12 0
14 3 6 13 -7 8 -7 18 -2 27 7 11 10 8 15 -12 4 -15 14 -27 23 -28 123 -10 192
-10 192 0 0 6 -6 23 -14 38 -22 44 -29 102 -13 102 10 0 18 -23 26 -74 12 -73
13 -74 39 -71 15 2 46 4 69 4 41 1 42 2 33 27 -12 31 -12 34 -2 34 4 0 16 -13
25 -30 19 -31 65 -44 53 -15 -8 21 11 19 24 -2 10 -16 11 -15 6 5 -3 17 -1 22
9 18 8 -3 17 -1 20 4 4 6 1 10 -6 10 -7 0 -4 7 7 15 10 8 31 15 46 15 30 0 50
20 21 20 -13 0 -9 6 15 21 17 12 32 22 32 23 0 0 -20 0 -45 -2 -36 -3 -45 -1
-45 12 0 25 -30 19 -31 -6 0 -22 -1 -22 -9 -3 -8 18 -9 18 -10 -5 -2 -23 -3
-23 -9 4 -3 17 -9 29 -13 28 -5 -1 -16 -2 -25 -2 -17 -1 -17 -1 0 -11 9 -5 17
-14 17 -19 0 -14 -41 -53 -47 -46 -4 3 -13 0 -22 -7 -14 -11 -14 -10 -2 5 7
10 18 15 25 11 6 -3 6 0 -1 8 -7 7 -13 28 -13 46 0 37 -6 41 -27 16 -13 -17
-14 -16 -8 5 8 28 -23 44 -39 20 -8 -14 -12 -13 -23 9 -15 28 -10 43 15 43 14
0 14 2 3 9 -7 5 -10 14 -7 20 4 6 1 11 -8 11 -8 0 -17 -6 -19 -12 -4 -10 -7
-10 -15 0 -5 7 -16 10 -25 6 -13 -5 -17 0 -17 18 0 14 -16 40 -37 64 -21 21
-45 48 -53 59 -14 19 -14 19 6 2 11 -9 34 -17 51 -17 36 0 102 -29 153 -66 21
-15 45 -24 61 -22 15 1 34 -3 42 -10 9 -8 28 -12 44 -10 24 3 28 8 31 39 2 27
-3 44 -22 67 -15 16 -26 35 -26 41 0 6 -9 20 -20 31 -16 16 -33 20 -84 20 -35
0 -79 6 -98 14 -21 9 -39 11 -48 6 -17 -11 -48 -4 -110 23 -36 16 -41 21 -26
27 15 5 9 10 -27 24 -44 17 -127 86 -127 106 0 5 11 10 25 10 14 0 25 5 25 11
0 5 4 8 9 4 12 -7 25 31 16 45 -4 6 -10 8 -14 6 -4 -3 -13 -1 -20 3 -7 5 16
11 56 15 75 8 143 25 143 37 0 15 -32 18 -46 4 -18 -17 -86 -20 -115 -5 -48
26 -2 65 67 57 45 -5 90 15 78 34 -3 5 0 17 7 25 9 11 9 18 2 22 -6 4 -14 23
-18 43 -5 30 -10 36 -26 32 -20 -6 -27 -23 -9 -23 6 0 10 -4 10 -10 0 -5 -7
-10 -15 -10 -8 0 -15 -6 -15 -14 0 -8 -16 -20 -35 -27 -27 -10 -35 -18 -33
-33 2 -13 -4 -22 -14 -24 -10 -2 -18 2 -18 8 0 6 -7 18 -15 26 -13 13 -12 18
5 37 l20 21 -32 35 c-18 20 -37 40 -41 46 -5 6 -11 5 -16 -3 -12 -19 -75 27
-79 58 -2 23 -1 24 11 7 16 -19 42 -23 52 -7 3 6 -5 14 -19 20 -14 5 -29 18
-35 28 -11 21 -4 111 11 129 6 8 3 18 -11 32 -22 22 -27 41 -13 41 5 0 14 -10
20 -22 10 -23 11 -23 11 5 1 18 6 27 19 28 11 0 8 4 -10 10 -24 9 -26 14 -21
47 3 20 9 39 12 42 3 3 7 27 9 55 3 52 30 95 61 95 9 1 27 23 41 52 14 28 31
58 39 65 10 11 11 17 2 26 -6 6 -11 19 -11 28 0 15 -6 16 -41 8 -23 -6 -50
-14 -59 -19 -14 -8 -20 -4 -30 20 -14 34 -6 78 16 87 20 7 93 -26 104 -48 5
-9 32 -22 60 -29 36 -9 56 -20 68 -39 9 -14 19 -28 23 -31 3 -3 11 -15 18 -27
16 -32 33 -30 21 2 -9 24 -4 30 23 26 4 0 7 4 7 10 0 5 3 8 8 6 4 -3 12 1 19
8 18 20 -11 39 -54 37 -45 -3 -78 19 -101 66 -15 32 -23 38 -59 43 -43 5 -77
25 -68 39 7 12 97 9 114 -4 7 -6 17 -19 21 -31 5 -13 10 6 14 58 7 66 11 80
33 97 16 13 34 18 47 15 17 -5 16 -2 -6 15 -16 12 -28 25 -28 30 0 12 40 -1
41 -14 1 -9 12 46 23 116 1 9 7 23 14 31 7 7 10 16 7 19 -3 2 1 5 7 6 7 0 23
4 36 7 12 4 22 3 22 -2 0 -13 100 -4 118 9 17 14 15 31 -3 24 -8 -3 -21 -9
-29 -12 -7 -3 -16 3 -20 13 -3 10 -9 24 -12 32 -5 10 0 13 19 9 19 -4 24 -1
20 9 -8 20 16 61 40 69 14 4 16 8 7 14 -17 10 24 37 70 46 29 6 32 5 27 -10
-5 -14 -3 -15 13 -6 11 6 24 20 30 31 11 19 9 20 -27 14 -29 -5 -35 -4 -23 5
13 9 12 10 -5 7 -11 -2 -19 -8 -18 -14 1 -6 -4 -14 -13 -17 -8 -3 -12 -2 -9 4
3 6 1 10 -5 10 -8 0 -11 15 -8 45 l3 45 -227 0 -228 0 0 -41z m440 -64 c0 -8
-4 -15 -10 -15 -5 0 -7 7 -4 15 4 8 8 15 10 15 2 0 4 -7 4 -15z m-522 -107
c-5 -14 -69 -50 -76 -43 -3 3 1 11 8 20 7 8 9 15 4 16 -15 1 30 18 49 18 11 1
17 -4 15 -11z m-883 -328 c3 -6 -1 -7 -9 -4 -18 7 -21 14 -7 14 6 0 13 -4 16
-10z m547 -60 c10 0 18 -4 18 -10 0 -5 16 -10 36 -10 30 0 34 -2 25 -14 -18
-22 -61 -26 -81 -7 -10 9 -26 22 -35 29 -8 7 -13 18 -9 23 4 7 10 7 17 0 6 -6
19 -11 29 -11z m-527 -10 c3 -5 -1 -10 -9 -10 -9 0 -16 5 -16 10 0 6 4 10 9
10 6 0 13 -4 16 -10z m403 -30 c-1 -17 2 -33 5 -37 4 -3 7 1 7 10 0 26 19 20
31 -9 12 -32 7 -39 -18 -26 -10 5 -24 7 -31 5 -7 -3 -19 0 -26 7 -14 11 -11
24 17 68 12 19 16 15 15 -18z m-535 -14 c4 -10 1 -13 -9 -9 -7 3 -14 9 -14 14
0 14 17 10 23 -5z m703 -29 c3 -3 -6 -9 -20 -13 -28 -7 -42 -1 -32 14 6 10 42
9 52 -1z m-322 -41 c-5 -14 -46 -36 -67 -36 -15 0 44 49 60 50 7 0 10 -6 7
-14z m526 -90 c0 5 5 1 11 -10 9 -14 8 -20 -2 -27 -17 -11 -39 16 -39 45 1 21
1 21 15 2 8 -11 15 -16 15 -10z m-853 -78 c-3 -8 -6 -5 -6 6 -1 11 2 17 5 13
3 -3 4 -12 1 -19z m393 -32 c0 -3 -4 -8 -10 -11 -5 -3 -10 -1 -10 4 0 6 5 11
10 11 6 0 10 -2 10 -4z m64 -20 c-3 -9 -10 -13 -16 -10 -5 3 -4 12 3 20 15 18
22 13 13 -10z m406 -33 c0 -26 -16 -46 -31 -41 -16 5 -19 40 -4 50 18 13 35 8
35 -9z m-900 -8 c-7 -8 -18 -15 -24 -15 -6 0 -2 7 8 15 25 19 32 19 16 0z
m660 -17 c0 -15 -20 -48 -20 -34 0 5 -7 3 -15 -4 -20 -16 -19 -6 1 25 17 27
34 33 34 13z m-630 -88 c-17 -32 -19 -21 -6 35 10 45 11 46 14 18 2 -18 -2
-42 -8 -53z m-95 49 c-4 -5 -1 -9 5 -9 8 0 10 -9 6 -24 -4 -17 -1 -28 10 -34
9 -5 15 -14 13 -21 -2 -6 -17 5 -32 25 -21 26 -27 42 -23 60 4 14 11 22 16 19
6 -4 8 -11 5 -16z m776 14 c6 -38 4 -115 -3 -119 -4 -3 -8 -2 -8 3 -1 4 -5 28
-9 52 -5 25 -7 51 -4 58 6 14 22 18 24 6z m-606 -62 c1 -16 -3 -27 -7 -25 -10
7 -11 54 0 54 4 0 7 -13 7 -29z m215 25 c0 -3 -4 -8 -10 -11 -5 -3 -10 -1 -10
4 0 6 5 11 10 11 6 0 10 -2 10 -4z m310 -17 c0 -5 -9 -9 -20 -9 -19 0 -26 11
-14 23 8 8 34 -3 34 -14z m263 -21 c-8 -46 -13 -48 -13 -5 0 21 4 37 10 37 5
0 7 -14 3 -32z m-826 0 c-3 -8 -6 -5 -6 6 -1 11 2 17 5 13 3 -3 4 -12 1 -19z
m303 -13 c0 -8 -4 -15 -10 -15 -5 0 -10 7 -10 15 0 8 5 15 10 15 6 0 10 -7 10
-15z m-148 -38 c-5 -19 -6 -19 -18 -2 -10 14 -11 22 -2 32 15 18 28 -1 20 -30z
m61 28 c-3 -9 -8 -14 -10 -11 -3 3 -2 9 2 15 9 16 15 13 8 -4z m-120 -32 c6
-16 16 -31 21 -34 15 -11 -4 -29 -30 -29 -18 0 -24 5 -24 23 0 13 5 28 12 35
9 9 8 12 -5 12 -10 0 -17 -8 -17 -21 0 -11 -4 -18 -9 -15 -13 9 -32 -19 -25
-38 4 -11 1 -16 -14 -16 -15 0 -18 5 -14 26 3 15 13 29 23 31 11 3 19 11 19
17 0 16 21 36 37 36 7 0 19 -12 26 -27z m332 -3 c-3 -5 -12 -10 -18 -10 -7 0
-6 4 3 10 19 12 23 12 15 0z m285 -5 c0 -10 -37 -14 -54 -6 -12 5 24 21 42 18
7 -1 13 -6 12 -12z m-433 -1 c-3 -3 -12 -4 -19 -1 -8 3 -5 6 6 6 11 1 17 -2
13 -5z m99 -40 c-4 -9 -9 -15 -11 -12 -3 3 -3 13 1 22 4 9 9 15 11 12 3 -3 3
-13 -1 -22z m252 -46 c4 2 8 -1 10 -7 4 -13 -25 -10 -52 6 -11 6 -16 15 -11
22 5 9 12 7 27 -6 11 -10 23 -17 26 -15z m-363 -48 c-3 -5 -13 -10 -21 -10 -8
0 -14 5 -14 10 0 6 9 10 21 10 11 0 17 -4 14 -10z m507 -45 c6 -13 15 -22 19
-19 5 3 9 0 9 -6 0 -6 -7 -13 -15 -16 -8 -4 -15 -15 -15 -25 0 -10 -6 -19 -13
-19 -7 0 -22 -7 -33 -16 -10 -8 -13 -13 -6 -9 7 4 12 0 12 -9 0 -23 -17 -20
-25 4 -4 11 -11 17 -17 14 -6 -4 -8 1 -6 12 2 10 13 24 26 30 12 6 19 14 14
19 -4 4 3 3 15 -4 14 -7 24 -8 28 -1 10 16 -4 30 -31 30 -27 0 -29 5 -11 25
18 21 36 18 49 -10z m-777 -85 c-10 -11 -20 -18 -23 -15 -7 6 18 35 31 35 5 0
2 -9 -8 -20z m535 -29 c15 -28 12 -33 -10 -19 -21 13 -27 38 -10 38 5 0 14 -9
20 -19z m-63 -35 c-11 -27 -27 -17 -27 16 0 30 1 31 16 16 9 -9 14 -24 11 -32z
m303 21 c0 -7 -5 -18 -11 -24 -8 -8 -7 -17 2 -34 11 -22 11 -23 -4 -10 -17 13
-23 61 -10 74 11 11 23 8 23 -6z m-720 -36 c0 -10 -7 -24 -15 -31 -8 -7 -15
-8 -15 -3 0 5 -15 8 -32 6 -26 -2 -29 -1 -13 6 11 5 23 7 27 4 4 -2 13 5 20
17 16 25 28 26 28 1z m335 -1 c17 -18 16 -19 -9 -26 -22 -5 -25 -9 -14 -21 10
-13 9 -15 -6 -12 -19 4 -32 39 -15 39 6 0 7 5 4 10 -3 6 -1 10 5 10 6 0 8 5 5
10 -11 18 11 11 30 -10z m169 -49 c-10 -10 -22 21 -16 43 5 19 6 18 13 -9 5
-16 6 -31 3 -34z m11 -51 c3 -5 2 -10 -4 -10 -5 0 -13 5 -16 10 -3 6 -2 10 4
10 5 0 13 -4 16 -10z m-675 -19 c0 -5 -7 -14 -15 -21 -16 -14 -18 -10 -9 14 6
17 24 22 24 7z m937 -43 c20 -19 23 -20 17 -4 -6 16 -3 17 17 11 23 -6 59 -40
59 -54 -1 -20 -22 -34 -51 -33 -38 1 -53 14 -74 65 -18 44 -5 50 32 15z m-81
-36 c-10 -11 -16 -12 -16 -4 0 7 5 12 10 12 6 0 10 8 11 18 0 11 2 13 6 4 3
-8 -2 -21 -11 -30z m-103 -42 c10 0 16 -4 13 -9 -6 -9 22 -26 37 -22 5 1 6 -3
2 -9 -4 -6 5 -10 22 -10 32 0 61 -15 50 -26 -3 -4 -13 -2 -21 5 -9 7 -15 8
-18 2 -4 -12 -105 31 -166 71 -24 15 -47 28 -53 28 -5 0 -9 5 -9 11 0 6 8 8
19 4 11 -3 22 -1 26 5 4 6 20 -1 43 -20 20 -16 45 -30 55 -30z m-254 -2 c-2
-13 0 -29 4 -35 5 -7 4 -13 -2 -13 -16 0 -23 19 -17 46 8 30 18 32 15 2z
m-494 2 c-3 -5 -12 -10 -18 -10 -7 0 -6 4 3 10 19 12 23 12 15 0z m265 -12 c0
-7 -3 -24 -7 -36 -4 -18 -8 -20 -14 -10 -14 22 -10 58 6 58 8 0 15 -6 15 -12z
m-80 -77 c14 -51 5 -74 -21 -58 -10 6 -19 18 -19 25 0 20 -23 39 -40 34 -13
-5 -13 -3 -1 11 7 10 24 17 38 17 16 0 22 4 17 12 -4 7 -3 8 4 4 6 -4 16 -24
22 -45z m-110 18 c-7 -11 -14 -18 -17 -15 -3 3 0 12 7 21 18 21 23 19 10 -6z
m290 6 c-10 -12 -9 -15 5 -15 14 0 15 -3 5 -15 -7 -8 -25 -15 -41 -15 -22 0
-29 5 -29 20 0 12 5 17 13 14 7 -2 21 2 32 10 26 20 31 20 15 1z m-340 -90 c0
-35 -3 -43 -15 -39 -8 4 -15 10 -15 16 0 5 5 6 11 3 6 -4 10 -1 8 6 -3 23 1
59 6 59 3 0 5 -20 5 -45z m404 7 c-6 -4 -13 -14 -16 -23 -4 -11 -16 -14 -42
-11 -20 2 -36 6 -36 7 0 2 3 10 6 19 8 20 24 21 24 1 0 -20 13 -19 41 4 13 11
26 17 29 15 2 -3 0 -8 -6 -12z m257 1 c13 -16 12 -17 -3 -4 -10 7 -18 15 -18
17 0 8 8 3 21 -13z m209 -48 c-1 -11 -27 20 -41 50 -6 11 1 7 15 -10 14 -16
26 -34 26 -40z m-245 45 c-3 -5 -13 -10 -21 -10 -8 0 -12 5 -9 10 3 6 13 10
21 10 8 0 12 -4 9 -10z m-530 -58 c-6 -31 -33 -46 -56 -31 -11 6 -10 9 4 15 9
3 14 11 10 18 -15 23 -14 48 2 42 8 -3 15 0 15 6 0 8 6 6 16 -4 11 -11 14 -25
9 -46z m342 40 c0 -10 -7 -19 -13 -19 -9 0 -10 5 -3 19 5 10 12 18 14 18 2 0
3 -8 2 -18z m-170 -24 c-3 -8 -6 -5 -6 6 -1 11 2 17 5 13 3 -3 4 -12 1 -19z
m148 -28 c-3 -5 -11 -10 -16 -10 -6 0 -7 5 -4 10 3 6 11 10 16 10 6 0 7 -4 4
-10z m-395 -43 c0 -5 -4 -5 -10 -2 -5 3 -10 14 -10 23 0 15 2 15 10 2 5 -8 10
-19 10 -23z m360 18 c0 -16 -27 -32 -36 -22 -7 6 17 36 29 37 4 0 7 -7 7 -15z
m678 -62 c2 -13 13 -24 29 -28 14 -3 23 -9 20 -12 -8 -7 -64 13 -81 29 -7 7
-11 19 -8 26 6 20 37 9 40 -15z m-488 -19 c0 -2 -7 -4 -15 -4 -8 0 -15 4 -15
10 0 5 7 7 15 4 8 -4 15 -8 15 -10z m-416 -68 c-6 -37 -9 -44 -20 -35 -11 9
-15 7 -20 -5 -3 -9 -4 -22 -1 -29 3 -8 1 -20 -4 -28 -10 -16 -13 9 -9 79 2 36
-1 41 -16 35 -12 -4 -15 -3 -10 6 5 7 14 10 21 7 8 -3 21 7 30 21 15 22 19 24
26 11 5 -9 6 -37 3 -62z m354 34 c-1 -21 -5 -29 -14 -26 -7 3 -18 -2 -24 -10
-7 -8 -26 -14 -42 -14 l-29 0 18 25 c10 13 23 25 29 25 6 0 17 7 24 15 21 25
39 18 38 -15z m935 -73 c4 3 7 1 7 -5 0 -7 6 -12 13 -12 21 0 70 -57 62 -71
-5 -8 -4 -10 3 -5 8 5 12 -2 12 -18 0 -38 -38 -34 -75 7 -16 18 -27 28 -22 23
32 -43 -29 -48 -75 -7 -28 25 -31 32 -19 43 8 8 11 8 7 1 -4 -7 0 -12 11 -11
10 0 27 -3 38 -7 18 -6 18 -5 -2 13 -20 17 -21 22 -8 32 8 7 15 20 15 29 1 14
2 14 14 -1 7 -10 16 -15 19 -11z m-1493 -29 c0 -49 -5 -47 -13 5 -3 20 -2 37
4 37 5 0 9 -19 9 -42z m715 22 c3 -5 17 -10 31 -10 20 0 24 -5 24 -30 0 -17 7
-33 17 -38 14 -8 12 -12 -17 -27 -30 -15 -34 -15 -48 -1 -15 15 -15 16 1 16 9
0 17 4 17 10 0 5 -7 7 -15 4 -11 -5 -13 -2 -9 10 4 11 1 16 -10 16 -9 0 -16 6
-16 14 0 8 -3 21 -6 30 -7 18 21 23 31 6z m-210 -20 c3 -5 2 -10 -4 -10 -5 0
-13 5 -16 10 -3 6 -2 10 4 10 5 0 13 -4 16 -10z m-18 -26 c-3 -4 -2 -15 3 -24
8 -15 6 -18 -8 -16 -9 2 -17 8 -16 14 2 27 5 32 16 32 6 0 8 -3 5 -6z m-457
-51 c-1 -28 -3 -34 -10 -22 -8 14 -3 59 6 59 2 0 4 -17 4 -37z m1185 27 c4 -6
10 -8 15 -5 14 9 50 -14 50 -30 0 -20 -29 -19 -36 0 -4 8 -10 15 -16 15 -5 0
-16 7 -24 15 -9 8 -11 15 -5 15 5 0 13 -5 16 -10z m-712 -50 c-7 -27 -33 -48
-33 -27 0 8 6 18 13 20 7 4 2 9 -12 13 -23 7 -23 8 -5 14 27 10 43 2 37 -20z
m346 -40 c-13 -16 -29 -30 -36 -30 -18 0 -16 17 2 24 8 3 15 14 15 25 0 11 8
27 18 37 16 17 17 17 20 -4 2 -11 -7 -35 -19 -52z m-645 27 c-1 -9 11 -18 30
-23 l31 -7 -30 -4 c-16 -3 -34 -9 -39 -14 -15 -14 -29 -11 -22 6 3 8 1 15 -4
15 -14 0 -12 24 2 38 16 16 33 10 32 -11z m677 -28 c-12 -12 -25 -19 -28 -16
-9 9 7 27 24 27 10 0 13 6 8 18 -5 13 -4 15 6 5 10 -10 8 -17 -10 -34z m-185
-21 c-3 -13 -6 -27 -6 -31 0 -4 -9 -3 -20 3 -16 9 -18 15 -10 30 15 29 44 26
36 -2z m273 20 c-2 -2 -17 -14 -34 -28 l-30 -25 24 28 c14 15 29 27 34 27 6 0
8 -1 6 -2z m-242 -30 c-3 -8 -6 -5 -6 6 -1 11 2 17 5 13 3 -3 4 -12 1 -19z
m533 5 c0 -28 -30 -72 -45 -67 -14 6 -22 64 -10 76 12 12 55 5 55 -9z m-998
-2 c-8 -4 -13 -12 -12 -17 2 -13 -39 -24 -46 -13 -8 13 4 25 31 32 33 8 41 7
27 -2z m325 -26 c-16 -17 -17 -14 -10 14 4 15 8 19 13 10 5 -6 3 -18 -3 -24z
m207 11 c11 1 27 -1 36 -6 11 -6 21 -5 28 2 8 8 15 6 26 -5 9 -9 12 -18 7 -22
-5 -3 -13 0 -17 6 -5 9 -14 4 -28 -14 -21 -27 -22 -27 -56 -9 -27 13 -35 24
-37 47 -2 25 0 27 10 14 7 -9 21 -15 31 -13z m-769 -46 c11 -4 23 -6 27 -4 8
5 58 -59 58 -74 0 -19 -55 -14 -79 7 -22 20 -41 76 -40 116 1 13 4 9 8 -9 3
-16 15 -32 26 -36z m976 22 c5 -14 8 -33 7 -41 -2 -9 4 -23 13 -31 14 -12 16
-27 12 -77 -3 -35 -9 -63 -13 -63 -24 0 -54 41 -59 81 -6 41 -8 44 -34 41 -17
-2 -29 3 -33 13 -3 8 -10 12 -16 9 -15 -10 15 38 45 72 33 37 63 35 78 -4z
m-917 22 c9 -3 16 -12 16 -20 0 -8 6 -11 15 -8 15 6 19 -4 15 -41 -4 -39 -18
-36 -44 9 -34 59 -35 73 -2 60z m81 -36 c-1 -12 -6 -23 -12 -25 -6 -2 -8 7 -6
22 6 31 20 33 18 3z m488 -27 c2 -10 -3 -23 -14 -29 -22 -14 -32 -2 -23 32 7
27 29 26 37 -3z m155 -36 c-6 -14 -13 -23 -15 -21 -5 5 15 46 22 46 3 0 -1
-11 -7 -25z m356 -21 c9 -8 16 -23 16 -32 0 -13 -4 -12 -19 7 -10 13 -23 21
-30 17 -6 -4 -11 -3 -11 3 0 5 6 12 13 14 6 3 13 6 14 6 1 1 9 -6 17 -15z
m-942 -21 c10 -9 18 -23 18 -31 0 -8 6 -12 15 -8 10 4 15 -1 15 -15 0 -30 -25
-34 -64 -9 -39 24 -56 58 -35 71 20 13 30 11 51 -8z m848 -55 c0 -5 -7 -8 -15
-8 -17 0 -18 2 -9 25 5 13 8 14 15 3 5 -7 9 -16 9 -20z"/>
<path d="M876 255 c-9 -26 -7 -32 5 -12 6 10 9 21 6 23 -2 3 -7 -2 -11 -11z"/>
<path d="M1720 2635 c-10 -13 -9 -15 8 -15 15 0 20 5 16 15 -4 8 -7 15 -9 15
-1 0 -8 -7 -15 -15z"/>
<path d="M1572 2424 c-10 -11 -8 -15 12 -20 37 -9 47 -1 22 17 -18 14 -23 14
-34 3z"/>
<path d="M50 2160 c-9 -6 -10 -10 -3 -10 6 0 15 5 18 10 8 12 4 12 -15 0z"/>
<path d="M1362 404 c-9 -10 -5 -14 17 -22 40 -14 56 0 22 19 -21 13 -29 13
-39 3z"/>
<path d="M1575 330 c21 -24 26 -25 19 -6 -3 8 -13 17 -22 21 -13 5 -13 2 3
-15z"/>
<path d="M1514 328 c-3 -4 2 -8 10 -8 8 0 17 4 20 8 3 5 -2 9 -10 9 -8 0 -17
-4 -20 -9z"/>
<path d="M1478 313 c7 -3 16 -2 19 1 4 3 -2 6 -13 5 -11 0 -14 -3 -6 -6z"/>
<path d="M1693 297 c-40 -10 -61 -37 -29 -37 7 0 19 -7 27 -16 11 -13 14 -13
21 -1 10 19 51 10 44 -9 -8 -20 0 -17 24 8 26 28 25 40 -2 36 -17 -2 -23 2
-22 15 2 19 -1 19 -63 4z"/>
</g>
</svg>
