<svg width="391.06748046875px" height="122.02138671875px" xmlns="http://www.w3.org/2000/svg" viewBox="54.46625976562501 13.989306640625003 391.06748046875 122.02138671875" style="background:#e00" preserveAspectRatio="xMidYMid"><defs><filter id="editing-lego" x="-100%" y="-100%" width="300%" height="300%"><feFlood flood-color="#000" result="f1"></feFlood><feFlood flood-color="#ff0" result="f2"></feFlood><feMorphology operator="dilate" radius="3" in="SourceAlpha"></feMorphology><feConvolveMatrix order="5,5" divisor="1" result="cm1" kernelMatrix="0 1 1 1 0  1 0 0 0 1  1 0 0 0 1  1 0 0 0 1  0 1 1 1 0"></feConvolveMatrix><feComposite operator="in" in="f1" in2="cm1" result="c1"></feComposite><feMorphology operator="dilate" radius="3"></feMorphology><feConvolveMatrix order="5,5" divisor="1" result="cm2" kernelMatrix="0 1 1 1 0  1 0 0 0 1  1 0 0 0 1  1 0 0 0 1  0 1 1 1 0"></feConvolveMatrix><feComposite operator="in" in="f2" in2="cm2" result="c2"></feComposite><feMerge><feMergeNode in="c2"></feMergeNode><feMergeNode in="c1"></feMergeNode><feMergeNode in="SourceGraphic"></feMergeNode></feMerge></filter></defs><g filter="url(#editing-lego)"><g transform="translate(113.65000367164612, 102.89718627929688)"><path d="M42.62-26.56L42.62-26.56L42.62-26.56Q42.62 0.70 13.06 0.70L13.06 0.70L13.06 0.70Q8.32 0.70 0.51-0.45L0.51-0.45L7.68-38.27L7.68-38.27Q8.19-40.83 8.51-42.30L8.51-42.30L8.51-42.30Q18.24-43.01 22.56-43.01L22.56-43.01L22.56-43.01Q26.88-43.01 30.85-42.11L30.85-42.11L30.85-42.11Q34.82-41.22 37.44-39.23L37.44-39.23L37.44-39.23Q42.62-35.33 42.62-26.56ZM29.44-28.93L29.44-28.93L29.44-28.93Q29.44-38.46 22.59-38.46L22.59-38.46L21.95-38.46L21.95-38.46Q21.63-38.46 21.31-38.40L21.31-38.40L14.72-4.03L14.72-4.03Q14.98-3.90 15.23-3.90L15.23-3.90L15.74-3.90L15.74-3.90Q18.11-3.90 20.58-5.38L20.58-5.38L20.58-5.38Q23.04-6.85 24.96-9.86L24.96-9.86L24.96-9.86Q29.44-16.83 29.44-28.93ZM66.43-2.69L66.43-2.69L66.43-2.69Q63.36 1.28 55.74 1.28L55.74 1.28L55.74 1.28Q51.78 1.28 48.90-1.12L48.90-1.12L48.90-1.12Q46.02-3.52 46.02-6.98L46.02-6.98L46.02-6.98Q46.02-8.90 46.21-9.86L46.21-9.86L50.50-32.64L63.49-33.92L58.82-9.22L58.82-9.22Q58.56-7.81 58.56-6.98L58.56-6.98L58.56-6.98Q58.56-3.26 60.80-3.26L60.80-3.26L60.80-3.26Q63.30-3.26 65.09-6.66L65.09-6.66L65.09-6.66Q65.66-7.74 65.92-9.15L65.92-9.15L70.46-32.64L83.07-33.92L78.34-8.96L78.34-8.96Q78.14-8 78.14-6.98L78.14-6.98L78.14-6.98Q78.14-5.95 78.72-4.83L78.72-4.83L78.72-4.83Q79.30-3.71 81.15-3.46L81.15-3.46L81.15-3.46Q80.77-1.92 79.42-0.90L79.42-0.90L79.42-0.90Q76.61 1.28 73.57 1.28L73.57 1.28L73.57 1.28Q70.53 1.28 68.74 0.19L68.74 0.19L68.74 0.19Q66.94-0.90 66.43-2.69ZM90.82-26.75L90.82-26.75L90.82-26.75Q92.99-29.82 96.29-31.87L96.29-31.87L96.29-31.87Q99.58-33.92 103.62-33.92L103.62-33.92L103.62-33.92Q107.65-33.92 109.57-32.64L109.57-32.64L122.11-33.92L117.76-9.34L117.76-9.34Q115.52 3.20 110.78 8.13L110.78 8.13L110.78 8.13Q106.24 12.80 97.41 12.80L97.41 12.80L97.41 12.80Q90.69 12.80 86.85 10.69L86.85 10.69L86.85 10.69Q83.01 8.58 83.01 5.06L83.01 5.06L83.01 5.06Q83.01 2.43 84.99 0.93L84.99 0.93L84.99 0.93Q86.98-0.58 90.05-0.58L90.05-0.58L90.05-0.58Q92.74-0.58 94.78 0.64L94.78 0.64L94.78 0.64Q96 1.28 96.58 2.18L96.58 2.18L96.58 2.18Q95.10 3.46 95.10 5.57L95.10 5.57L95.10 5.57Q95.10 8.32 97.66 8.32L97.66 8.32L97.66 8.32Q101.95 8.32 104.38-1.79L104.38-1.79L104.38-1.79Q105.09-4.54 105.66-7.30L105.66-7.30L105.66-7.30Q102.78-3.78 96.26-3.78L96.26-3.78L96.26-3.78Q91.71-3.78 89.09-5.95L89.09-5.95L89.09-5.95Q86.46-8.13 86.46-13.25L86.46-13.25L86.46-13.25Q86.46-16.45 87.55-20.06L87.55-20.06L87.55-20.06Q88.64-23.68 90.82-26.75ZM99.14-13.06L99.14-13.06L99.14-13.06Q99.14-8.70 101.38-8.70L101.38-8.70L101.38-8.70Q102.91-8.70 104.38-10.37L104.38-10.37L104.38-10.37Q105.54-11.71 105.98-13.70L105.98-13.70L109.25-30.14L109.25-30.14Q108.93-30.21 108.61-30.34L108.61-30.34L108.61-30.34Q107.97-30.59 107.14-30.59L107.14-30.59L107.14-30.59Q103.23-30.59 100.93-24.19L100.93-24.19L100.93-24.19Q99.14-19.20 99.14-13.06ZM150.53-10.82L150.53-10.82L150.53-10.82Q152.13-9.73 152.13-7.33L152.13-7.33L152.13-7.33Q152.13-4.93 150.91-3.39L150.91-3.39L150.91-3.39Q149.70-1.86 147.71-0.83L147.71-0.83L147.71-0.83Q143.62 1.28 139.20 1.28L139.20 1.28L139.20 1.28Q134.78 1.28 132.19 0.32L132.19 0.32L132.19 0.32Q129.60-0.64 127.87-2.43L127.87-2.43L127.87-2.43Q124.48-5.82 124.48-12.03L124.48-12.03L124.48-12.03Q124.48-21.70 129.73-27.58L129.73-27.58L129.73-27.58Q135.36-33.92 145.15-33.92L145.15-33.92L145.15-33.92Q151.23-33.92 154.24-31.36L154.24-31.36L154.24-31.36Q156.48-29.44 156.48-26.30L156.48-26.30L156.48-26.30Q156.48-15.04 137.02-15.04L137.02-15.04L137.02-15.04Q136.77-13.38 136.77-11.97L136.77-11.97L136.77-11.97Q136.77-9.02 138.08-7.90L138.08-7.90L138.08-7.90Q139.39-6.78 141.82-6.78L141.82-6.78L141.82-6.78Q144.26-6.78 146.85-7.90L146.85-7.90L146.85-7.90Q149.44-9.02 150.53-10.82ZM137.47-17.79L137.47-17.79L137.47-17.79Q142.02-17.79 144.64-20.61L144.64-20.61L144.64-20.61Q147.26-23.30 147.26-27.58L147.26-27.58L147.26-27.58Q147.26-29.06 146.72-29.86L146.72-29.86L146.72-29.86Q146.18-30.66 145.09-30.66L145.09-30.66L145.09-30.66Q144-30.66 143.07-30.24L143.07-30.24L143.07-30.24Q142.14-29.82 141.18-28.42L141.18-28.42L141.18-28.42Q138.82-25.22 137.47-17.79ZM200.19-26.56L200.19-26.56L200.19-26.56Q200.19 0.70 170.62 0.70L170.62 0.70L170.62 0.70Q165.89 0.70 158.08-0.45L158.08-0.45L165.25-38.27L165.25-38.27Q165.76-40.83 166.08-42.30L166.08-42.30L166.08-42.30Q175.81-43.01 180.13-43.01L180.13-43.01L180.13-43.01Q184.45-43.01 188.42-42.11L188.42-42.11L188.42-42.11Q192.38-41.22 195.01-39.23L195.01-39.23L195.01-39.23Q200.19-35.33 200.19-26.56ZM187.01-28.93L187.01-28.93L187.01-28.93Q187.01-38.46 180.16-38.46L180.16-38.46L179.52-38.46L179.52-38.46Q179.20-38.46 178.88-38.40L178.88-38.40L172.29-4.03L172.29-4.03Q172.54-3.90 172.80-3.90L172.80-3.90L173.31-3.90L173.31-3.90Q175.68-3.90 178.14-5.38L178.14-5.38L178.14-5.38Q180.61-6.85 182.53-9.86L182.53-9.86L182.53-9.86Q187.01-16.83 187.01-28.93ZM229.38-10.82L229.38-10.82L229.38-10.82Q230.98-9.73 230.98-7.33L230.98-7.33L230.98-7.33Q230.98-4.93 229.76-3.39L229.76-3.39L229.76-3.39Q228.54-1.86 226.56-0.83L226.56-0.83L226.56-0.83Q222.46 1.28 218.05 1.28L218.05 1.28L218.05 1.28Q213.63 1.28 211.04 0.32L211.04 0.32L211.04 0.32Q208.45-0.64 206.72-2.43L206.72-2.43L206.72-2.43Q203.33-5.82 203.33-12.03L203.33-12.03L203.33-12.03Q203.33-21.70 208.58-27.58L208.58-27.58L208.58-27.58Q214.21-33.92 224-33.92L224-33.92L224-33.92Q230.08-33.92 233.09-31.36L233.09-31.36L233.09-31.36Q235.33-29.44 235.33-26.30L235.33-26.30L235.33-26.30Q235.33-15.04 215.87-15.04L215.87-15.04L215.87-15.04Q215.62-13.38 215.62-11.97L215.62-11.97L215.62-11.97Q215.62-9.02 216.93-7.90L216.93-7.90L216.93-7.90Q218.24-6.78 220.67-6.78L220.67-6.78L220.67-6.78Q223.10-6.78 225.70-7.90L225.70-7.90L225.70-7.90Q228.29-9.02 229.38-10.82ZM216.32-17.79L216.32-17.79L216.32-17.79Q220.86-17.79 223.49-20.61L223.49-20.61L223.49-20.61Q226.11-23.30 226.11-27.58L226.11-27.58L226.11-27.58Q226.11-29.06 225.57-29.86L225.57-29.86L225.57-29.86Q225.02-30.66 223.94-30.66L223.94-30.66L223.94-30.66Q222.85-30.66 221.92-30.24L221.92-30.24L221.92-30.24Q220.99-29.82 220.03-28.42L220.03-28.42L220.03-28.42Q217.66-25.22 216.32-17.79ZM260.74-31.55L260.74-31.55L260.74-31.55Q262.85-33.92 266.50-33.92L266.50-33.92L266.50-33.92Q268.74-33.92 270.46-32.70L270.46-32.70L270.46-32.70Q272.19-31.49 272.19-29.22L272.19-29.22L272.19-29.22Q272.19-26.94 271.49-24.51L271.49-24.51L271.49-24.51Q270.78-22.08 269.70-19.58L269.70-19.58L269.70-19.58Q267.52-14.72 264.51-10.69L264.51-10.69L264.51-10.69Q260.29-4.86 256.22-1.79L256.22-1.79L256.22-1.79Q252.16 1.28 247.74 1.28L247.74 1.28L247.74 1.28Q244.16 1.28 241.98 0.45L241.98 0.45L241.98 0.45Q241.60-12.99 241.12-17.79L241.12-17.79L241.12-17.79Q240.64-22.59 240.26-25.22L240.26-25.22L240.26-25.22Q239.62-30.34 237.70-31.55L237.70-31.55L237.70-31.55Q239.17-32.83 240.61-33.38L240.61-33.38L240.61-33.38Q242.05-33.92 245.02-33.92L245.02-33.92L245.02-33.92Q248-33.92 250.11-31.58L250.11-31.58L250.11-31.58Q252.22-29.25 252.64-25.12L252.64-25.12L252.64-25.12Q253.06-20.99 253.06-16L253.06-16L253.06-16Q253.06-11.01 252.67-4.99L252.67-4.99L252.67-4.99Q254.66-6.40 256.77-10.69L256.77-10.69L256.77-10.69Q259.65-16.64 260.67-23.81L260.67-23.81L260.67-23.81Q260.99-25.98 260.99-28.29L260.99-28.29L260.99-28.29Q260.99-30.59 260.74-31.55Z" fill="#fff"></path></g></g><style>text {
  font-size: 64px;
  font-family: Arial Black;
  dominant-baseline: central;
  text-anchor: middle;
}</style></svg>