<?xml version="1.0" standalone="no"?>
<!DOCTYPE svg PUBLIC "-//W3C//DTD SVG 20010904//EN"
 "http://www.w3.org/TR/2001/REC-SVG-20010904/DTD/svg10.dtd">
<svg version="1.0" xmlns="http://www.w3.org/2000/svg"
 width="299.000000pt" height="168.000000pt" viewBox="0 0 299.000000 168.000000"
 preserveAspectRatio="xMidYMid meet">

<g transform="translate(0.000000,168.000000) scale(0.100000,-0.100000)"
fill="#000000" stroke="none">
<path d="M1465 1670 c-7 -12 -8 -11 30 -14 17 -1 51 -11 78 -21 40 -15 58 -16
119 -8 40 5 86 6 102 2 17 -4 25 -7 19 -8 -7 -1 -13 -8 -13 -17 0 -8 4 -13 9
-9 5 3 13 1 16 -5 4 -6 3 -10 -2 -9 -20 3 -34 -2 -28 -11 3 -5 1 -10 -5 -10
-6 0 -8 -4 -5 -10 3 -5 1 -10 -4 -10 -14 0 -14 6 -1 31 13 23 4 24 -30 3 -14
-8 -17 -13 -7 -10 31 10 18 -5 -18 -20 -19 -8 -35 -19 -35 -25 0 -5 -5 -7 -10
-4 -6 4 -7 11 -4 17 4 5 -4 4 -17 -2 -34 -18 -38 -24 -11 -16 14 5 22 3 22 -4
0 -7 -13 -10 -34 -9 -19 2 -40 -2 -47 -8 -8 -6 -33 -19 -56 -28 -24 -10 -43
-21 -43 -26 0 -5 -7 -6 -15 -3 -8 4 -15 1 -15 -5 0 -6 -7 -11 -15 -11 -8 0
-15 -4 -15 -8 0 -5 -16 -17 -35 -28 -30 -16 -37 -17 -45 -5 -13 22 -140 22
-132 1 4 -12 2 -13 -9 -2 -29 26 -92 0 -66 -28 10 -10 8 -10 -8 -3 -29 15 -94
26 -75 13 13 -8 12 -10 -3 -10 -9 0 -26 9 -37 20 -21 21 -35 27 -25 10 3 -6
-5 -10 -19 -10 -13 0 -26 -3 -29 -7 -2 -5 -2 -2 -1 5 2 7 -7 12 -22 12 -16 0
-23 4 -18 12 5 7 3 8 -5 4 -7 -5 -10 -14 -7 -21 4 -10 -1 -10 -22 1 -34 18
-76 19 -66 2 4 -7 4 -10 -1 -6 -4 4 -15 2 -24 -5 -14 -11 -15 -10 -1 7 12 15
12 20 2 23 -6 3 -10 8 -7 13 3 4 -5 6 -17 2 -16 -4 -19 -2 -13 9 7 11 6 12 -6
2 -13 -10 -20 -13 -34 -13 -3 0 0 -6 7 -14 15 -16 32 -11 22 6 -4 6 -2 8 4 5
5 -4 9 -15 7 -25 -2 -9 -4 -19 -4 -21 -1 -2 -10 4 -20 13 -11 10 -25 15 -32
10 -8 -5 -10 -3 -4 7 8 12 6 12 -8 1 -10 -9 -35 -13 -66 -10 -32 2 -46 0 -41
-7 5 -6 -2 -10 -18 -10 -15 -1 -30 3 -33 9 -10 13 -52 -30 -44 -46 3 -7 -1 -4
-9 6 -15 18 -16 18 -16 2 0 -9 -4 -15 -9 -12 -5 4 -12 0 -15 -6 -5 -10 -7 -10
-12 -1 -4 9 -11 10 -23 3 -10 -5 -21 -7 -24 -3 -4 3 -9 -1 -13 -10 -3 -10 -13
-14 -27 -10 -12 3 -66 7 -119 9 -81 3 -98 1 -98 -11 0 -18 -31 -20 -48 -3 -10
10 -15 10 -22 -2 -10 -16 -12 -15 -28 15 -9 15 -11 -20 -12 -152 0 -95 3 -173
8 -173 10 1 42 26 42 34 0 10 34 40 68 59 29 17 35 17 85 2 48 -14 57 -14 90
0 35 14 36 14 34 -6 -2 -30 -42 -55 -62 -39 -17 14 -39 4 -31 -15 5 -15 -21
-42 -31 -31 -3 3 -1 6 5 6 7 0 12 7 12 17 0 15 -1 15 -18 0 -10 -10 -22 -14
-25 -11 -4 4 -9 -1 -13 -10 -6 -15 -7 -15 -18 0 -10 13 -17 14 -32 6 -10 -6
-35 -15 -54 -20 -32 -9 -33 -11 -12 -17 34 -11 26 -25 -13 -25 l-35 0 0 -465
0 -465 1495 0 1495 0 0 840 0 840 -760 0 c-470 -1 -762 -5 -765 -10z m397 -62
c-3 -12 -7 -17 -10 -10 -2 7 -9 10 -15 6 -7 -3 -3 2 7 10 25 20 25 20 18 -6z
m22 -23 c-10 -8 -23 -15 -28 -15 -6 0 -1 7 10 15 10 8 23 15 28 15 6 0 1 -7
-10 -15z m21 -25 c-11 -5 -27 -9 -35 -9 -9 0 -8 4 5 9 11 5 27 9 35 9 9 0 8
-4 -5 -9z m315 -85 c-7 -8 -17 -15 -23 -15 -6 0 -2 7 9 15 25 19 30 19 14 0z
m-36 -70 c-4 -8 -1 -22 6 -30 10 -12 10 -15 -3 -15 -18 0 -28 35 -14 49 15 15
17 14 11 -4z m66 0 c0 -8 -2 -15 -4 -15 -2 0 -6 7 -10 15 -3 8 -1 15 4 15 6 0
10 -7 10 -15z m-120 -20 c0 -8 -4 -15 -10 -15 -5 0 -7 7 -4 15 4 8 8 15 10 15
2 0 4 -7 4 -15z m95 5 c3 -5 1 -10 -4 -10 -6 0 -11 5 -11 10 0 6 2 10 4 10 3
0 8 -4 11 -10z m-935 -45 c0 -8 -2 -15 -4 -15 -2 0 -6 7 -10 15 -3 8 -1 15 4
15 6 0 10 -7 10 -15z m155 -14 c3 -5 2 -12 -3 -15 -5 -3 -9 1 -9 9 0 17 3 19
12 6z m55 -21 c0 -5 -5 -10 -11 -10 -5 0 -7 5 -4 10 3 6 8 10 11 10 2 0 4 -4
4 -10z m-44 -9 c-4 -5 0 -11 6 -14 7 -2 9 -8 5 -13 -9 -10 -28 16 -21 28 3 4
7 8 10 8 3 0 3 -4 0 -9z m-156 -21 c0 -5 -4 -10 -10 -10 -5 0 -10 5 -10 10 0
6 5 10 10 10 6 0 10 -4 10 -10z m135 0 c3 -5 1 -10 -4 -10 -6 0 -11 5 -11 10
0 6 2 10 4 10 3 0 8 -4 11 -10z m-1333 -35 c0 -5 -5 -11 -11 -13 -6 -2 -11 4
-11 13 0 9 5 15 11 13 6 -2 11 -8 11 -13z m1378 -4 c0 -6 -4 -12 -8 -15 -5 -3
-9 1 -9 9 0 8 4 15 9 15 4 0 8 -4 8 -9z m1006 -89 c-17 -16 -18 -16 -5 5 7 12
15 20 18 17 3 -2 -3 -12 -13 -22z m-332 -30 c2 -4 -4 -8 -15 -8 -10 0 -19 4
-19 8 0 10 27 10 34 0z m374 -38 c0 -17 -3 -22 -8 -13 -5 6 -6 18 -3 26 8 19
11 16 11 -13z m-48 12 c0 -3 -4 -8 -10 -11 -5 -3 -10 -1 -10 4 0 6 5 11 10 11
6 0 10 -2 10 -4z m-2111 -38 c-9 -17 -13 -18 -20 -7 -15 24 -10 37 11 32 16
-4 18 -9 9 -25z m1561 -8 c0 -5 -5 -10 -11 -10 -5 0 -7 5 -4 10 3 6 8 10 11
10 2 0 4 -4 4 -10z m165 0 c-3 -5 -12 -10 -18 -10 -7 0 -6 4 3 10 19 12 23 12
15 0z m-303 -12 c2 -6 18 -11 36 -11 17 0 29 -4 26 -8 -2 -4 1 -11 7 -15 7 -4
9 -3 6 3 -4 6 -1 15 6 21 9 8 13 4 13 -18 2 -28 -8 -32 -35 -16 -9 6 -12 5 -8
0 11 -18 -10 -35 -44 -36 -19 -1 -28 -3 -21 -6 9 -3 10 -7 2 -17 -13 -16 -50
-8 -50 11 0 8 -9 14 -21 14 -15 0 -19 4 -15 16 3 9 9 26 12 39 3 13 13 26 22
28 33 9 60 7 64 -5z m688 -2 c0 -3 -4 -8 -10 -11 -5 -3 -10 -1 -10 4 0 6 5 11
10 11 6 0 10 -2 10 -4z m40 -6 c0 -5 -9 -14 -20 -20 -14 -7 -20 -7 -20 0 0 5
7 10 15 10 8 0 15 5 15 10 0 6 2 10 5 10 3 0 5 -4 5 -10z m-400 -20 c0 -5 -2
-10 -4 -10 -3 0 -8 5 -11 10 -3 6 -1 10 4 10 6 0 11 -4 11 -10z m-678 -32 c-7
-7 -12 -8 -12 -2 0 14 12 26 19 19 2 -3 -1 -11 -7 -17z m-55 -23 c0 -8 -4 -12
-9 -9 -4 3 -8 9 -8 15 0 5 4 9 8 9 5 0 9 -7 9 -15z m103 5 c0 -5 -4 -10 -10
-10 -5 0 -10 5 -10 10 0 6 5 10 10 10 6 0 10 -4 10 -10z m0 -45 c0 -2 -6 -5
-13 -8 -8 -3 -14 1 -14 8 0 7 6 11 14 8 7 -3 13 -6 13 -8z m594 -27 c-7 -44
-23 -85 -24 -60 0 18 21 102 26 102 2 0 1 -19 -2 -42z m-559 2 c3 -5 1 -10 -4
-10 -6 0 -11 5 -11 10 0 6 2 10 4 10 3 0 8 -4 11 -10z m-61 -8 c3 -5 -1 -9 -9
-9 -8 0 -12 4 -9 9 3 4 7 8 9 8 2 0 6 -4 9 -8z m666 -97 c-11 -50 -17 -69 -14
-44 9 81 22 144 29 137 2 -2 -5 -44 -15 -93z m30 -72 c-11 -17 -11 -17 -6 0 3
10 7 26 7 35 1 15 2 15 6 0 2 -10 -1 -25 -7 -35z m-198 -138 c22 0 25 -3 16
-18 -5 -11 -7 -29 -4 -40 2 -12 -2 -33 -9 -47 l-14 -25 -1 24 c0 13 -3 21 -7
18 -3 -4 -15 1 -26 10 -11 10 -17 12 -13 5 6 -9 1 -15 -15 -19 -22 -6 -22 -7
-3 -14 17 -7 17 -8 1 -8 -10 -1 -15 -5 -12 -11 3 -5 3 -10 -2 -10 -14 1 -65
82 -59 95 3 8 -5 16 -20 19 -13 4 -24 11 -24 17 0 8 5 7 15 -1 10 -9 19 -9 28
-2 17 14 57 20 92 14 17 -4 42 -6 57 -7z m-746 -95 c25 0 32 -3 28 -15 -4 -8
-10 -12 -15 -9 -14 8 -50 -6 -43 -18 4 -6 10 -5 15 3 6 10 9 10 9 2 0 -6 -4
-15 -10 -18 -14 -9 -12 -21 5 -39 14 -13 14 -16 -1 -24 -9 -5 -25 -7 -35 -5
-20 6 -26 -11 -9 -22 6 -3 10 -1 10 5 0 6 5 8 10 5 6 -4 7 -11 4 -17 -4 -6 -2
-8 3 -5 6 4 13 -2 16 -13 6 -24 1 -25 -20 -5 -8 8 -19 12 -25 9 -6 -4 -8 -2
-4 4 3 6 2 13 -4 17 -5 3 -10 15 -10 26 0 13 4 18 12 13 7 -5 8 -3 2 7 -4 8
-10 23 -11 34 -2 11 -8 22 -13 23 -16 6 -11 32 5 32 8 0 15 5 15 11 0 6 7 8
16 5 9 -3 31 -6 50 -6z m38 -78 c3 -5 -1 -9 -9 -9 -8 0 -12 4 -9 9 3 4 7 8 9
8 2 0 6 -4 9 -8z m-34 -62 c0 -5 -4 -10 -9 -10 -6 0 -13 5 -16 10 -3 6 1 10 9
10 9 0 16 -4 16 -10z m10 -30 c0 -5 -2 -10 -4 -10 -3 0 -8 5 -11 10 -3 6 -1
10 4 10 6 0 11 -4 11 -10z m-15 -48 c-3 -3 -11 0 -18 7 -9 10 -8 11 6 5 10 -3
15 -9 12 -12z m-8 -44 c1 -30 1 -31 -6 -8 -7 21 -5 40 2 40 2 0 3 -15 4 -32z
m89 -74 c-4 -18 -14 -38 -24 -43 -10 -6 -12 -11 -4 -11 15 0 16 -50 1 -50 -5
0 -7 4 -4 10 3 5 -3 15 -14 22 -15 9 -17 16 -9 31 5 10 7 21 4 24 -8 8 14 44
23 38 5 -3 12 7 17 23 6 21 8 23 12 9 2 -11 1 -34 -2 -53z"/>
<path d="M1155 400 c-3 -6 1 -7 9 -4 18 7 21 14 7 14 -6 0 -13 -4 -16 -10z"/>
<path d="M1460 1620 c-8 -5 -10 -10 -5 -10 6 0 17 5 25 10 8 5 11 10 5 10 -5
0 -17 -5 -25 -10z"/>
<path d="M1487 1466 c-4 -10 -1 -13 8 -9 8 3 12 9 9 14 -7 12 -11 11 -17 -5z"/>
</g>
</svg>
